<?xml version="1.0" encoding="UTF-8"?>
<svg width="10px" height="14px" viewBox="0 0 10 14" version="1.1" xmlns="http://www.w3.org/2000/svg" xmlns:xlink="http://www.w3.org/1999/xlink">
    <!-- Generator: Sketch 51.3 (57544) - http://www.bohemiancoding.com/sketch -->
    <title>gps drop</title>
    <desc>Created with Sketch.</desc>
    <defs></defs>
    <g id="1.2-Main-Page" stroke="none" stroke-width="1" fill="none" fill-rule="evenodd">
        <g id="7b.-choose-trip" transform="translate(-141.000000, -298.000000)">
            <g id="map" transform="translate(15.553357, 90.583513)">
                <g id="gps-end" transform="translate(126.000000, 208.000000)">
                    <ellipse id="Oval-42" fill="#FFFFFF" cx="4.55517483" cy="3.83223728" rx="1.96317299" ry="1.72265627"></ellipse>
                    <path d="M8.43778205,1.97586272 C7.90589425,1.16509838 7.06714811,0.540509558 5.94881992,0.210198161 C5.75106677,0.150141544 5.55331361,0.10209625 5.34874138,0.072067941 C5.130531,0.0360339705 4.8918634,0.0120113235 4.64637673,0 L4.35315653,0 C4.10766986,0.0120113235 3.86900225,0.0360339705 3.65079188,0.072067941 C3.43940057,0.10209625 3.24164742,0.150141544 3.05071334,0.210198161 C1.93238515,0.540509558 1.08681993,1.16509838 0.554932138,1.97586272 C0.193521199,2.53438926 -0.051965476,3.23104602 0.00940619285,4.08384999 C0.0298634158,4.474218 0.152606753,4.82855205 0.28898824,5.14685212 C0.4321888,5.45914653 0.595846584,5.74141263 0.786780665,6.01166741 C1.53005976,7.07466954 2.53246369,8.01755844 3.09844686,9.23070211 C3.39166705,9.84327961 3.6439728,10.4858854 3.86218318,11.1705309 C4.07357448,11.8491706 4.27132764,12.5638444 4.35315653,13.3505861 L4.64637673,13.3505861 C4.72820562,12.5638444 4.9191397,11.8491706 5.130531,11.1705309 C5.34874138,10.4858854 5.6078662,9.84327961 5.89426733,9.23070211 C6.46706957,8.01755844 7.46947349,7.07466954 8.20593352,6.01166741 C8.40368667,5.74141263 8.56734446,5.45914653 8.71054502,5.14685212 C8.8469265,4.82855205 8.96285077,4.474218 8.99012706,4.08384999 C9.04467966,3.23104602 8.80601206,2.53438926 8.43778205,1.97586272 L8.43778205,1.97586272 Z M4.49552304,5.31152349 C3.5461357,5.31152349 2.78116174,4.66626736 2.78116174,3.87301671 C2.78116174,3.07976606 3.5461357,2.44042971 4.49552304,2.44042971 C5.44491038,2.44042971 6.21671447,3.07976606 6.21671447,3.87301671 C6.21671447,4.66626736 5.44491038,5.31152349 4.49552304,5.31152349 L4.49552304,5.31152349 Z" id="Fill-1" fill="#FF0068"></path>
                </g>
            </g>
        </g>
    </g>
</svg>