
<svg width="140px" height="178px" viewBox="0 0 140 178" version="1.1" xmlns="http://www.w3.org/2000/svg" xmlns:xlink="http://www.w3.org/1999/xlink">
    <g id="Symbols" stroke="none" stroke-width="1" fill="none" fill-rule="evenodd">
        <g id="logo/logo-8-big" transform="translate(-1.000000, 0.000000)" fill="#44D2DD">
            <g id="logo-8" transform="translate(0.940493, 0.000000)">
                <path d="M138.940493,170.375995 L138.940493,173.5 L57.9404925,173.5 L57.9404925,0.5 L138.940493,0.5 L138.940493,1.50028317 C139.035415,1.29620308 139.129962,1.09190863 139.224134,0.887399819 L139.224134,171 C139.129686,170.791466 139.035139,170.583465 138.940493,170.375999 Z M138.940493,170.375995 L138.940493,1.50028317 C130.545381,19.5495351 119.216868,35.9220733 104.954953,50.6178979 C83.320195,72.9108797 57.9404925,68.1288129 57.9404925,85.9436999 C57.9404925,103.758587 86.0639466,106.864806 104.954953,121.95544 C117.432935,131.923181 128.761448,148.063367 138.940493,170.375999 Z" id="Combined-Shape"></path>
                <polygon id="Rectangle-7" points="0.809507452 0.5 32.8095075 0.5 32.8095075 178 0.809507452 178"></polygon>
            </g>
        </g>
    </g>
</svg>