<?xml version="1.0" encoding="UTF-8"?>
<svg width="271px" height="214px" viewBox="0 0 271 214" version="1.1" xmlns="http://www.w3.org/2000/svg" xmlns:xlink="http://www.w3.org/1999/xlink">
    <!-- Generator: Sketch 51.3 (57544) - http://www.bohemiancoding.com/sketch -->
    <title>keemut/logo</title>
    <desc>Created with Sketch.</desc>
    <defs>
        <linearGradient x1="0%" y1="50%" x2="100%" y2="50%" id="linearGradient-1">
            <stop stop-color="#3EDCB2" offset="0%"></stop>
            <stop stop-color="#03BED3" offset="100%"></stop>
        </linearGradient>
    </defs>
    <g id="branding" stroke="none" stroke-width="1" fill="none" fill-rule="evenodd">
        <g id="A3" transform="translate(-821.000000, -150.000000)">
            <g id="keemut/logo" transform="translate(821.006411, 150.000000)">
                <g id="keemut-logo">
                    <circle id="Oval" stroke="#1FEFC6" fill="#FFFFFF" cx="136" cy="106.578999" r="99.5"></circle>
                    <path d="M123.221637,6.81512676 L136,0 L148.778363,6.81512676 L162.582746,3.3547515 L173.279563,13.0107411 L187.559867,13.2419331 L195.363955,25.292525 L209.236345,28.9908166 L213.869079,42.5007505 L226.357969,49.6901631 L227.332745,63.8882265 L237.763047,73.9351816 L235.230208,88.1941167 L242.787009,100.253551 L236.909116,113.410693 L241.102096,127.063511 L232.052898,138.209478 L232.822418,152.54574 L221.4053,161.12653 L218.427042,175.225821 L205.225104,180.540332 L198.893022,193.564818 L184.549278,195.562198 L175.415255,206.475713 L161.0857,204.951285 L149.3968,213.157999 L136,207.995993 L122.6032,213.157999 L110.9143,204.951285 L96.5847447,206.475713 L87.4507216,195.562198 L73.106978,193.564818 L66.7748964,180.540332 L53.5729582,175.225821 L50.5946998,161.12653 L39.1775824,152.54574 L39.9471024,138.209478 L30.8979044,127.063511 L35.0908844,113.410693 L29.2129908,100.253551 L36.7697922,88.1941167 L34.2369528,73.9351816 L44.6672547,63.8882265 L45.6420313,49.6901631 L58.1309214,42.5007505 L62.7636546,28.9908166 L76.6360446,25.292525 L84.4401331,13.2419331 L98.7204371,13.0107411 L109.417254,3.3547515 L123.221637,6.81512676 Z M123.854704,8 L99.397159,14.0979508 L77.3726293,26.306347 L58.9558007,43.4803176 L45.5985078,64.8564545 L38.092302,87.9581806 L36.3340008,113.103058 L41.1389216,137.822233 L51.7812252,160.644726 L67.9835091,179.953856 L87.635011,194.231508 L111.005866,203.673947 L136,206.74284 L160.994134,203.673947 L184.364989,194.231508 L204.016491,179.953856 L220.218775,160.644726 L230.861078,137.822233 L235.665999,113.103058 L233.907698,87.9581806 L226.401492,64.8564545 L213.044199,43.4803176 L194.627371,26.306347 L172.602841,14.0979508 L148.145296,8 L123.854704,8 Z" id="Triangle" fill="#50CDC0"></path>
                    <polygon id="Rectangle-5" fill="#50CDC0" points="0 92 41 92 41 146 0 146 16.5 119"></polygon>
                    <polygon id="Rectangle-5" fill="#50CDC0" transform="translate(250.500000, 119.000000) scale(-1, 1) translate(-250.500000, -119.000000) " points="230 92 271 92 271 146 230 146 246.5 119"></polygon>
                    <rect id="Rectangle-4" fill="url(#linearGradient-1)" x="28" y="79.0789994" width="216" height="55"></rect>
                    <text id="Keemut.com" font-family="Comfortaa-Bold, Comfortaa" font-size="24" font-style="expanded" font-weight="bold" letter-spacing="0.5" fill="#FFFFFF" fill-opacity="0.87">
                        <tspan x="67" y="114">Keemut.com</tspan>
                    </text>
                    <text id="alpha" font-family="Comfortaa-Bold, Comfortaa" font-size="16" font-style="expanded" font-weight="bold" letter-spacing="0.3333333" fill="#03314B">
                        <tspan x="115" y="156">alpha</tspan>
                    </text>
                    <polyline id="Path-2" stroke="#FFFFFF" transform="translate(239.750000, 112.750000) scale(-1, 1) translate(-239.750000, -112.750000) " points="236 92 236 133.5 243.5 133.5"></polyline>
                    <polyline id="Path-2" stroke="#FFFFFF" points="28.5 92 28.5 133.5 36 133.5"></polyline>
                </g>
            </g>
        </g>
    </g>
</svg>